<svg width="128" height="48" viewBox="0 0 128 48" fill="none" xmlns="http://www.w3.org/2000/svg">
<path fill-rule="evenodd" clip-rule="evenodd" d="M21.8336 40.133L36.3873 32.0158V27.1344L33.2265 28.8917C33.2194 28.9824 33.2123 29.073 33.1981 29.1637C32.8998 31.0465 31.4082 32.6783 29.8598 32.8178C28.3184 32.9573 27.3098 31.5417 27.6082 29.6658C27.9065 27.7829 29.3981 26.1511 30.9465 26.0117C31.671 25.9489 32.2747 26.2209 32.6867 26.7299L36.9271 24.4148L38.9159 23.3339L38.3618 23.6337L38.9159 23.3269V23.3339V33.6825L21.8407 43.3687L4.75838 33.6825V14.1916L21.8407 23.7523L36.4441 15.5793L21.8336 7.56682L16.8403 10.3771L22.1745 13.3757L24.4474 12.0508L24.7031 16.8625L17.2238 16.2558L20.2141 14.5194L14.7805 11.5417L14.7663 11.5487L12.124 10.0912H12.1311L12.124 10.0842L14.2122 8.9127L21.8265 4.63796L38.9088 14.1986V15.4678L38.9159 17.5738L21.8336 27.3018L7.39353 19.0312V32.0995L21.8336 40.14V40.133ZM41.409 10.3423L24.0994 0.530576C22.8564 -0.173746 20.8179 -0.173746 19.5749 0.530576L2.26529 10.3423C1.0223 11.0466 0.0065918 12.776 0.0065918 14.1847V33.808C0.0065918 35.2167 1.0223 36.9461 2.26529 37.6504L19.5749 47.4621C20.8179 48.1664 22.8493 48.1664 24.0994 47.4621L41.409 37.6504C42.6519 36.9461 43.6748 35.2167 43.6748 33.808V14.1847C43.6748 12.776 42.659 11.0466 41.409 10.3423Z" fill="white"/>
<path d="M53.6049 22.811C52.3406 21.758 51.7156 20.2029 51.7156 18.1458C51.7156 16.0886 52.3619 14.5405 53.6475 13.4875C54.9332 12.4345 56.6947 11.9045 58.9249 11.9045C59.8554 11.9045 60.6722 11.9673 61.3825 12.0998C62.0928 12.2253 62.7747 12.4415 63.4281 12.7413V16.0746C62.4195 15.6004 61.2689 15.3633 59.9762 15.3633C58.8468 15.3633 58.0087 15.5725 57.4618 15.9979C56.922 16.4163 56.652 17.1346 56.652 18.1458C56.652 19.129 56.9219 19.8333 57.4547 20.2727C57.9874 20.712 58.8255 20.9282 59.9762 20.9282C61.1979 20.9282 62.3556 20.6492 63.4494 20.0914V23.5851C62.2278 24.122 60.7149 24.394 58.8894 24.394C56.6236 24.394 54.8621 23.864 53.5978 22.811H53.6049Z" fill="white"/>
<path d="M73.2942 20.2727C73.6493 19.8334 73.8269 19.129 73.8269 18.1458C73.8269 17.1834 73.6493 16.4861 73.2942 16.0398C72.9391 15.5935 72.3708 15.3703 71.5824 15.3703C70.8082 15.3703 70.2542 15.5935 69.9061 16.0398C69.5652 16.4861 69.3947 17.1904 69.3947 18.1458C69.3947 19.129 69.5652 19.8334 69.9061 20.2727C70.2542 20.712 70.8082 20.9282 71.5824 20.9282C72.3708 20.9282 72.9462 20.712 73.2942 20.2727ZM64.4512 18.1458C64.4512 16.1095 65.0407 14.5614 66.2269 13.4945C67.413 12.4345 69.1959 11.8975 71.5824 11.8975C73.9832 11.8975 75.7802 12.4275 76.9806 13.4945C78.1738 14.5544 78.7705 16.1095 78.7705 18.1458C78.7705 22.3089 76.3768 24.394 71.5895 24.394C66.8306 24.394 64.4583 22.3089 64.4583 18.1458H64.4512Z" fill="white"/>
<path d="M81.1427 23.4665C80.5035 22.8529 80.1768 21.8696 80.1768 20.5237V7.09977H85.0209V19.9937C85.0209 20.3494 85.0919 20.5935 85.2411 20.726C85.3831 20.8654 85.6317 20.9282 85.9727 20.9282C86.4699 20.9282 86.8889 20.8654 87.237 20.726V23.8849C86.7753 24.0732 86.3278 24.1987 85.9088 24.2755C85.4897 24.3522 84.957 24.394 84.3248 24.394C82.8474 24.394 81.7891 24.0872 81.1427 23.4665Z" fill="white"/>
<path d="M88.835 7.12766H94.0627V10.5656H88.835V7.12766ZM89.2186 15.6214H87.4429L87.8548 12.1555H94.0556V24.136H89.2186V15.6144V15.6214Z" fill="white"/>
<path d="M104.461 20.2866C104.802 19.8403 104.965 19.1081 104.965 18.1039C104.965 17.1067 104.795 16.4024 104.454 15.977C104.113 15.5586 103.573 15.3494 102.828 15.3494C102.039 15.3494 101.4 15.5586 100.924 15.977V20.2239C101.457 20.712 102.089 20.9561 102.828 20.9561C103.58 20.9561 104.127 20.7329 104.461 20.2866ZM102.174 24.0872C101.585 23.8849 101.023 23.5921 100.512 23.2015L100.278 24.136H96.0798V7.09977H100.917V12.5879C101.329 12.3648 101.812 12.1974 102.373 12.0858C102.934 11.9673 103.495 11.9045 104.056 11.9045C107.956 11.9045 109.902 13.9547 109.902 18.0481C109.902 20.1402 109.398 21.7162 108.382 22.7901C107.366 23.864 105.981 24.394 104.213 24.394C103.438 24.394 102.756 24.2894 102.167 24.0872H102.174Z" fill="white"/>
<path d="M111.401 12.1555H116.06L116.188 13.1179C116.721 12.811 117.367 12.5461 118.134 12.3229C118.894 12.0998 119.668 11.9603 120.435 11.9045V15.447C119.711 15.4958 118.951 15.6074 118.148 15.7748C117.339 15.9421 116.699 16.1374 116.238 16.3536V24.143H111.394V12.1625L111.401 12.1555Z" fill="white"/>
<path d="M122.765 7.12766H127.993V10.5656H122.765V7.12766ZM123.149 15.6214H121.373L121.785 12.1555H127.986V24.136H123.142V15.6144L123.149 15.6214Z" fill="white"/>
<path d="M113.532 31.493C113.809 31.493 114.015 31.4442 114.15 31.3466C114.285 31.2489 114.348 31.0676 114.348 30.8026C114.348 30.5655 114.292 30.3912 114.178 30.3005C114.064 30.2029 113.887 30.1541 113.638 30.1541H112.63V31.493H113.532ZM112.31 29.8752H113.66C113.993 29.8752 114.242 29.9588 114.412 30.1192C114.583 30.2866 114.668 30.5097 114.668 30.8026C114.668 31.0467 114.604 31.2489 114.476 31.4023C114.348 31.5558 114.164 31.6534 113.922 31.6952C113.993 31.7301 114.05 31.7719 114.093 31.8277C114.128 31.8765 114.171 31.9463 114.214 32.0439L114.633 33.0272H114.32L113.887 32.0579C113.837 31.9393 113.773 31.8626 113.702 31.8277C113.624 31.7929 113.496 31.7789 113.29 31.7789H112.63V33.0272H112.31V29.8891V29.8752ZM114.476 33.2224C114.796 33.0411 115.045 32.797 115.222 32.4902C115.407 32.1834 115.492 31.8347 115.492 31.4512C115.492 31.0746 115.4 30.7329 115.222 30.4191C115.037 30.1053 114.796 29.8612 114.476 29.6869C114.157 29.5125 113.816 29.4149 113.425 29.4149C113.042 29.4149 112.694 29.5056 112.374 29.6869C112.061 29.8612 111.813 30.1123 111.628 30.4191C111.443 30.7329 111.358 31.0746 111.358 31.4512C111.358 31.8347 111.451 32.1764 111.628 32.4902C111.813 32.804 112.061 33.0411 112.374 33.2224C112.686 33.3968 113.042 33.4874 113.425 33.4874C113.809 33.4874 114.157 33.3968 114.476 33.2224ZM112.232 33.4804C111.87 33.2712 111.578 32.9853 111.365 32.6227C111.152 32.2601 111.046 31.8696 111.046 31.4512C111.046 31.0258 111.152 30.6353 111.365 30.2726C111.578 29.91 111.87 29.6311 112.232 29.4219C112.601 29.2127 112.999 29.1081 113.425 29.1081C113.858 29.1081 114.256 29.2127 114.625 29.4219C114.988 29.6311 115.279 29.917 115.492 30.2726C115.705 30.6353 115.812 31.0258 115.812 31.4512C115.812 31.8696 115.705 32.2601 115.492 32.6227C115.279 32.9853 114.988 33.2712 114.625 33.4804C114.256 33.6896 113.858 33.7943 113.425 33.7943C112.992 33.7943 112.594 33.6896 112.232 33.4804Z" fill="white"/>
<path d="M58.9393 32.8249V32.0369C58.9393 30.3842 58.0798 29.5544 56.3539 29.5544C55.2813 29.5544 54.5284 29.8263 54.081 30.3703C53.6335 30.9142 53.4133 31.7301 53.4133 32.8249H58.9393ZM53.4772 36.3326C52.7811 35.6283 52.4331 34.5195 52.4331 33.0132C52.4331 30.168 53.7329 28.7455 56.3326 28.7455C57.4974 28.7455 58.3711 29.0523 58.9535 29.666C59.5359 30.2796 59.8271 31.0816 59.8271 32.0718V33.5781H53.4133C53.4488 34.3173 53.5838 34.903 53.8253 35.3354C54.0668 35.7747 54.4361 36.0955 54.9404 36.2977C55.4447 36.5 56.1337 36.6046 57.0002 36.6046C57.7815 36.6046 58.5415 36.4581 59.2802 36.1652V36.9532C58.5557 37.2461 57.7318 37.3926 56.8013 37.3926C55.2813 37.3926 54.1733 37.0369 53.4772 36.3326Z" fill="white"/>
<path d="M64.373 32.9993L61.2691 28.9198H62.3416L64.8915 32.3368L67.4556 28.9198H68.5069L65.4597 32.9993L68.6347 37.2182H67.5622L64.8915 33.6478L62.2351 37.2182H61.1838L64.373 32.9993Z" fill="white"/>
<path d="M76.4548 35.7468C76.9733 35.175 77.229 34.2754 77.229 33.0481C77.229 31.8487 76.9875 30.963 76.5187 30.3982C76.0428 29.8333 75.2615 29.5474 74.1819 29.5474C73.0667 29.5474 72.1505 29.924 71.4402 30.6701V35.6771C72.1647 36.2977 73.0525 36.6046 74.0966 36.6046C75.155 36.6046 75.9434 36.3187 76.4619 35.7468H76.4548ZM70.4529 28.9198H71.2768L71.3691 29.8612C71.7811 29.4777 72.2357 29.1918 72.7258 29.0104C73.2159 28.8291 73.777 28.7385 74.4234 28.7385C76.9449 28.7385 78.2021 30.175 78.2021 33.0411C78.2021 34.5125 77.8682 35.6074 77.1935 36.3117C76.5187 37.03 75.574 37.3786 74.3523 37.3786C73.7557 37.3786 73.2301 37.3089 72.7684 37.1764C72.3067 37.0439 71.8663 36.8277 71.4473 36.5209V40.9839H70.4671V28.9128L70.4529 28.9198Z" fill="white"/>
<path d="M80.2334 28.9198H81.0857L81.1923 30.0774C81.6184 29.7845 82.1156 29.5265 82.6839 29.2894C83.245 29.0523 83.8061 28.878 84.3672 28.7455V29.5335C83.8274 29.659 83.2592 29.8542 82.6484 30.0983C82.0304 30.3494 81.5545 30.6004 81.2136 30.8445V37.2113H80.2334V28.9198Z" fill="white"/>
<path d="M91.8609 32.8249V32.0369C91.8609 30.3842 91.0015 29.5544 89.2755 29.5544C88.203 29.5544 87.4501 29.8263 87.0026 30.3703C86.5551 30.9142 86.3349 31.7301 86.3349 32.8249H91.8609ZM86.3989 36.3326C85.7028 35.6283 85.3547 34.5195 85.3547 33.0132C85.3547 30.168 86.6546 28.7455 89.2613 28.7455C90.4261 28.7455 91.2998 29.0523 91.8822 29.666C92.4647 30.2796 92.7559 31.0816 92.7559 32.0718V33.5781H86.342C86.3775 34.3173 86.5125 34.903 86.754 35.3354C86.9884 35.7747 87.3648 36.0955 87.8691 36.2977C88.3734 36.5 89.0624 36.6046 89.929 36.6046C90.7103 36.6046 91.4774 36.4581 92.209 36.1652V36.9532C91.4845 37.2461 90.6605 37.3926 89.7301 37.3926C88.2101 37.3926 87.102 37.0369 86.406 36.3326H86.3989Z" fill="white"/>
<path d="M94.6167 37.0439V36.1862C95.391 36.4442 96.2149 36.5697 97.0885 36.5697C97.9196 36.5697 98.5162 36.4581 98.8713 36.235C99.2265 36.0118 99.404 35.6422 99.404 35.1123C99.404 34.7845 99.333 34.5265 99.1981 34.3452C99.0631 34.1569 98.8571 34.0104 98.6014 33.8919C98.3386 33.7733 97.9338 33.6199 97.3726 33.4386L96.9252 33.2782C96.2859 33.069 95.8029 32.8877 95.4904 32.7482C95.1779 32.6018 94.908 32.3856 94.6949 32.0997C94.4818 31.8138 94.3752 31.4233 94.3752 30.9351C94.3752 30.2029 94.6238 29.652 95.1139 29.2894C95.604 28.9268 96.3924 28.7455 97.4721 28.7455C98.2818 28.7455 99.0276 28.8431 99.7237 29.0453V29.9031C99.0347 29.6939 98.3315 29.5893 97.6141 29.5893C96.7831 29.5893 96.1936 29.6939 95.8526 29.8961C95.5046 30.0983 95.3341 30.44 95.3341 30.9212C95.3341 31.235 95.4052 31.486 95.5472 31.6674C95.6893 31.8487 95.8953 31.9951 96.1794 32.1137C96.4564 32.2322 96.911 32.3856 97.5431 32.5879C98.2534 32.811 98.8074 33.0202 99.1909 33.2085C99.5745 33.4037 99.8728 33.6478 100.072 33.9477C100.271 34.2475 100.377 34.6381 100.377 35.1262C100.377 36.6394 99.3188 37.3996 97.2022 37.3996C96.1794 37.3996 95.3128 37.281 94.6025 37.0509L94.6167 37.0439Z" fill="white"/>
<path d="M102.075 37.0439V36.1862C102.849 36.4442 103.673 36.5697 104.554 36.5697C105.385 36.5697 105.981 36.4581 106.336 36.235C106.692 36.0118 106.876 35.6422 106.876 35.1123C106.876 34.7845 106.805 34.5265 106.67 34.3452C106.528 34.1569 106.329 34.0104 106.074 33.8919C105.811 33.7733 105.399 33.6199 104.845 33.4386L104.397 33.2782C103.758 33.069 103.275 32.8877 102.963 32.7482C102.65 32.6018 102.38 32.3856 102.167 32.0997C101.954 31.8138 101.847 31.4233 101.847 30.9351C101.847 30.2029 102.096 29.652 102.593 29.2894C103.083 28.9268 103.872 28.7455 104.951 28.7455C105.761 28.7455 106.507 28.8431 107.196 29.0453V29.9031C106.507 29.6939 105.804 29.5893 105.093 29.5893C104.255 29.5893 103.673 29.6939 103.325 29.8961C102.977 30.0983 102.806 30.44 102.806 30.9212C102.806 31.235 102.877 31.486 103.019 31.6674C103.161 31.8487 103.367 31.9951 103.652 32.1137C103.929 32.2322 104.383 32.3856 105.015 32.5879C105.726 32.811 106.28 33.0202 106.663 33.2085C107.047 33.4037 107.338 33.6478 107.544 33.9477C107.75 34.2475 107.849 34.6381 107.849 35.1262C107.849 36.6394 106.791 37.3996 104.674 37.3996C103.652 37.3996 102.785 37.281 102.075 37.0509V37.0439Z" fill="white"/>
</svg>
